<?xml version="1.0" encoding="UTF-8"?>
<svg width="102px" height="13px" viewBox="0 0 102 13" version="1.1" xmlns="http://www.w3.org/2000/svg" xmlns:xlink="http://www.w3.org/1999/xlink">
    <!-- Generator: sketchtool 52.4 (67378) - http://www.bohemiancoding.com/sketch -->
    <title>60755A72-4BE5-49B4-9755-C4450EA99BD9</title>
    <desc>Created with sketchtool.</desc>
    <g id="Symbols" stroke="none" stroke-width="1" fill="none" fill-rule="evenodd">
        <g id="Component-/-Header" transform="translate(-74.000000, -39.000000)" fill="#51BFDD">
            <g id="Group" transform="translate(41.000000, 31.000000)">
                <g id="Text" transform="translate(33.000000, 8.000000)">
                    <path d="M1.04598592,0.537677089 L8.1293662,0.537677089 C8.32077465,0.537677089 8.45989437,0.694924238 8.45989437,0.86967866 L8.45989437,2.30336521 C8.45989437,2.47811964 8.32077465,2.6356851 8.1293662,2.6356851 L2.9778169,2.6356851 L2.9778169,5.50242158 L7.27658451,5.50242158 C7.45056338,5.50242158 7.60711268,5.65966873 7.60711268,5.83442315 L7.60711268,7.28529867 C7.60711268,7.47787868 7.45056338,7.61761855 7.27658451,7.61761855 L2.9778169,7.61761855 L2.9778169,10.6766167 L8.1293662,10.6766167 C8.32077465,10.6766167 8.45989437,10.8341822 8.45989437,11.0089366 L8.45989437,12.4423049 C8.45989437,12.6170593 8.32077465,12.7743064 8.1293662,12.7743064 L1.04598592,12.7743064 C0.854577465,12.7743064 0.715457746,12.6170593 0.715457746,12.4423049 L0.715457746,0.86967866 C0.715457746,0.694924238 0.854577465,0.537677089 1.04598592,0.537677089 Z" id="Fill-14"></path>
                    <path d="M9.63021127,0.992229576 C9.5259507,0.764953333 9.66538732,0.537677089 9.92619718,0.537677089 L11.701162,0.537677089 C11.8580282,0.537677089 11.9622887,0.642720731 11.9971479,0.729938785 L15.3385563,8.24660715 L15.4605634,8.24660715 L18.8019718,0.729938785 C18.836831,0.642720731 18.9410915,0.537677089 19.0979577,0.537677089 L20.8729225,0.537677089 C21.1340493,0.537677089 21.273169,0.764953333 21.1689085,0.992229576 L15.773662,12.7567992 C15.7213732,12.8618428 15.6345423,12.9490608 15.477993,12.9490608 L15.3040141,12.9490608 C15.1471479,12.9490608 15.0603169,12.8618428 15.0080282,12.7567992 L9.63021127,0.992229576" id="Fill-15"></path>
                    <path d="M22.5379225,0.86967866 C22.5379225,0.694924238 22.6770423,0.537677089 22.8684507,0.537677089 L29.951831,0.537677089 C30.1432394,0.537677089 30.2826761,0.694924238 30.2826761,0.86967866 L30.2826761,2.30336521 C30.2826761,2.47811964 30.1432394,2.6356851 29.951831,2.6356851 L24.8002817,2.6356851 L24.8002817,5.50242158 L29.0990493,5.50242158 C29.2730282,5.50242158 29.4295775,5.65966873 29.4295775,5.83442315 L29.4295775,7.28529867 C29.4295775,7.47787868 29.2730282,7.61761855 29.0990493,7.61761855 L24.8002817,7.61761855 L24.8002817,10.6766167 L29.951831,10.6766167 C30.1432394,10.6766167 30.2826761,10.8341822 30.2826761,11.0089366 L30.2826761,12.4423049 C30.2826761,12.6170593 30.1432394,12.7743064 29.951831,12.7743064 L22.8684507,12.7743064 C22.6770423,12.7743064 22.5379225,12.6170593 22.5379225,12.4423049 L22.5379225,0.86967866" id="Fill-16"></path>
                    <path d="M37.7257394,6.11422122 C38.6482394,6.11422122 39.4487324,5.31015988 39.4487324,4.33102582 C39.4487324,3.40473188 38.6482394,2.6356851 37.7257394,2.6356851 L34.888838,2.6356851 L34.888838,6.11422122 L37.7257394,6.11422122 L37.7257394,6.11422122 Z M32.6090493,0.86967866 C32.6090493,0.694924238 32.7484859,0.537677089 32.9395775,0.537677089 L37.9174648,0.537677089 C40.0055282,0.537677089 41.7110915,2.21582885 41.7110915,4.29632958 C41.7110915,5.90445225 40.6497887,7.21558789 39.1356338,7.82738752 L41.5196831,12.2675504 C41.6416901,12.4945084 41.5196831,12.7743064 41.2240141,12.7743064 L39.3964437,12.7743064 C39.2402113,12.7743064 39.1530634,12.6870884 39.1178873,12.6170593 L36.8035563,7.98463467 L34.8717254,7.98463467 L34.8717254,12.4423049 C34.8717254,12.6170593 34.7148592,12.7743064 34.5408803,12.7743064 L32.9395775,12.7743064 C32.7484859,12.7743064 32.6090493,12.6170593 32.6090493,12.4423049 L32.6090493,0.86967866 L32.6090493,0.86967866 Z" id="Fill-17"></path>
                    <path d="M43.6197887,11.0614584 L44.2463028,9.97728072 C44.3851056,9.73281552 44.6814085,9.73281552 44.8379577,9.85504812 C44.9247887,9.90756994 46.3343662,10.9389075 47.4660211,10.9389075 C48.3707746,10.9389075 49.0495775,10.3446152 49.0495775,9.59275733 C49.0495775,8.70115963 48.3013732,8.08936 46.8391901,7.49506764 C45.2033451,6.83074618 43.5675,5.78190133 43.5675,3.71922618 C43.5675,2.16362534 44.7159507,0.362922667 47.4831338,0.362922667 C49.2584155,0.362922667 50.6157042,1.27202764 50.9639789,1.53400012 C51.1379577,1.63904376 51.1902465,1.93603078 51.0682394,2.11110352 L50.4071831,3.10742655 C50.2677465,3.31719552 50.0066197,3.45693539 49.7980986,3.31719552 C49.658662,3.22997746 48.3359155,2.35588704 47.3788732,2.35588704 C46.3866549,2.35588704 45.8472887,3.01989018 45.8472887,3.57948631 C45.8472887,4.40105491 46.4912324,4.96065104 47.9008099,5.53743613 C49.5889437,6.21926486 51.5382042,7.23277685 51.5382042,9.48771369 C51.5382042,11.2887347 49.9891901,12.9490608 47.5354225,12.9490608 C45.3427817,12.9490608 44.0545775,11.9177233 43.7066197,11.5857217 C43.5497535,11.4281562 43.4629225,11.3409382 43.6197887,11.0614584" id="Fill-18"></path>
                    <path d="M55.4028169,2.6356851 L52.7402113,2.6356851 C52.5488028,2.6356851 52.4093662,2.47811964 52.4093662,2.30336521 L52.4093662,0.86967866 C52.4093662,0.694924238 52.5488028,0.537677089 52.7402113,0.537677089 L60.3455282,0.537677089 C60.5369366,0.537677089 60.6763732,0.694924238 60.6763732,0.86967866 L60.6763732,2.30336521 C60.6763732,2.47811964 60.5369366,2.6356851 60.3455282,2.6356851 L57.6829225,2.6356851 L57.6829225,12.4423049 C57.6829225,12.6170593 57.5260563,12.7743064 57.3520775,12.7743064 L55.733662,12.7743064 C55.5596831,12.7743064 55.4028169,12.6170593 55.4028169,12.4423049 L55.4028169,2.6356851" id="Fill-19"></path>
                    <path d="M67.6516901,6.11422122 C68.5741901,6.11422122 69.3746831,5.31015988 69.3746831,4.33102582 C69.3746831,3.40473188 68.5741901,2.6356851 67.6516901,2.6356851 L64.8147887,2.6356851 L64.8147887,6.11422122 L67.6516901,6.11422122 L67.6516901,6.11422122 Z M62.535,0.86967866 C62.535,0.694924238 62.6744366,0.537677089 62.8655282,0.537677089 L67.8434155,0.537677089 C69.9314789,0.537677089 71.6370423,2.21582885 71.6370423,4.29632958 C71.6370423,5.90445225 70.5757394,7.21558789 69.0615845,7.82738752 L71.4456338,12.2675504 C71.5676408,12.4945084 71.4456338,12.7743064 71.1499648,12.7743064 L69.3223944,12.7743064 C69.1658451,12.7743064 69.0790141,12.6870884 69.043838,12.6170593 L66.729507,7.98463467 L64.7976761,7.98463467 L64.7976761,12.4423049 C64.7976761,12.6170593 64.6408099,12.7743064 64.466831,12.7743064 L62.8655282,12.7743064 C62.6744366,12.7743064 62.535,12.6170593 62.535,12.4423049 L62.535,0.86967866 L62.535,0.86967866 Z" id="Fill-20"></path>
                    <path d="M74.0759155,0.86967866 C74.0759155,0.694924238 74.2324648,0.537677089 74.4064437,0.537677089 L76.0251761,0.537677089 C76.1994718,0.537677089 76.3557042,0.694924238 76.3557042,0.86967866 L76.3557042,12.4423049 C76.3557042,12.6170593 76.1994718,12.7743064 76.0251761,12.7743064 L74.4064437,12.7743064 C74.2324648,12.7743064 74.0759155,12.6170593 74.0759155,12.4423049 L74.0759155,0.86967866" id="Fill-21"></path>
                    <path d="M79.0984859,0.677735278 C79.0984859,0.502662542 79.2553521,0.362922667 79.429331,0.362922667 L79.8644366,0.362922667 L87.1043662,8.08936 L87.1217958,8.08936 L87.1217958,0.86967866 C87.1217958,0.694924238 87.2609155,0.537677089 87.4523239,0.537677089 L89.0536268,0.537677089 C89.2276056,0.537677089 89.3841549,0.694924238 89.3841549,0.86967866 L89.3841549,12.6345665 C89.3841549,12.809321 89.2276056,12.9490608 89.0536268,12.9490608 L88.6359507,12.9490608 L81.361162,4.92531818 L81.3440493,4.92531818 L81.3440493,12.4423049 C81.3440493,12.6170593 81.2046127,12.7743064 81.0132042,12.7743064 L79.429331,12.7743064 C79.2553521,12.7743064 79.0984859,12.6170593 79.0984859,12.4423049 L79.0984859,0.677735278" id="Fill-22"></path>
                    <path d="M97.5060211,0.362922667 C99.0721479,0.362922667 100.568873,0.974722302 101.752183,1.9885526 C101.89162,2.12861079 101.909049,2.33837976 101.76993,2.47811964 L100.690563,3.61418254 C100.551444,3.75424073 100.394894,3.75424073 100.238345,3.61418254 C99.4901408,2.9501794 98.5673239,2.60035224 97.6102817,2.60035224 C95.4350704,2.60035224 93.7120775,4.47108401 93.7120775,6.65599176 C93.7120775,8.82371055 95.4350704,10.6591095 97.6277113,10.6591095 C98.6025,10.6591095 99.3507042,10.3621224 99.698662,10.2223826 L99.698662,8.73617418 L98.3061972,8.73617418 C98.1151056,8.73617418 97.975669,8.59643431 97.975669,8.42136157 L97.975669,7.04083346 C97.975669,6.84825345 98.1151056,6.70851358 98.3061972,6.70851358 L101.647923,6.70851358 C101.821901,6.70851358 101.961021,6.86607904 101.961021,7.04083346 L101.961021,11.5160109 C101.961021,11.6554325 101.89162,11.7429689 101.821901,11.7954907 C101.821901,11.7954907 100.02919,12.9318719 97.5060211,12.9318719 C94.0426056,12.9318719 91.257993,10.1698607 91.257993,6.67349903 C91.257993,3.17745564 94.0426056,0.362922667 97.5060211,0.362922667" id="Fill-23"></path>
                </g>
            </g>
        </g>
    </g>
</svg>